<svg width="24" height="24" viewBox="0 0 24 24" fill="none" xmlns="http://www.w3.org/2000/svg">
<path d="M7 21H17C18.0609 21 19.0783 20.5786 19.8284 19.8284C20.5786 19.0783 21 18.0609 21 17V12.15C21 11.8848 20.8946 11.6304 20.7071 11.4429C20.5196 11.2554 20.2652 11.15 20 11.15C19.7348 11.15 19.4804 11.2554 19.2929 11.4429C19.1054 11.6304 19 11.8848 19 12.15V17C19 17.5304 18.7893 18.0391 18.4142 18.4142C18.0391 18.7893 17.5304 19 17 19H7C6.46957 19 5.96086 18.7893 5.58579 18.4142C5.21071 18.0391 5 17.5304 5 17V7C5 6.46957 5.21071 5.96086 5.58579 5.58579C5.96086 5.21071 6.46957 5 7 5H12C12.2652 5 12.5196 4.89464 12.7071 4.70711C12.8946 4.51957 13 4.26522 13 4C13 3.73478 12.8946 3.48043 12.7071 3.29289C12.5196 3.10536 12.2652 3 12 3H7C5.93913 3 4.92172 3.42143 4.17157 4.17157C3.42143 4.92172 3 5.93913 3 7V17C3 18.0609 3.42143 19.0783 4.17157 19.8284C4.92172 20.5786 5.93913 21 7 21Z" fill="#37236B"/>
<path d="M20.29 4.28994L12 12.5899L8.71 9.28994C8.5217 9.10164 8.2663 8.99585 8 8.99585C7.7337 8.99585 7.47831 9.10164 7.29 9.28994C7.1017 9.47825 6.99591 9.73364 6.99591 9.99994C6.99591 10.1318 7.02188 10.2624 7.07234 10.3842C7.1228 10.506 7.19676 10.6167 7.29 10.7099L11.29 14.7099C11.383 14.8037 11.4936 14.8781 11.6154 14.9288C11.7373 14.9796 11.868 15.0057 12 15.0057C12.132 15.0057 12.2627 14.9796 12.3846 14.9288C12.5064 14.8781 12.617 14.8037 12.71 14.7099L21.71 5.70994C21.8983 5.52164 22.0041 5.26624 22.0041 4.99994C22.0041 4.73364 21.8983 4.47825 21.71 4.28994C21.5217 4.10164 21.2663 3.99585 21 3.99585C20.7337 3.99585 20.4783 4.10164 20.29 4.28994Z" fill="#37236B"/>
</svg>
