<svg width="16" height="17" viewBox="0 0 16 17" fill="none" xmlns="http://www.w3.org/2000/svg">
<path fill-rule="evenodd" clip-rule="evenodd" d="M14.465 10.7846C14.465 12.1357 13.3659 13.233 12.0165 13.233H3.98351C2.6341 13.233 1.53501 12.1357 1.53501 10.7846V5.67325C1.53501 5.22231 1.65847 4.79878 1.87279 4.43528L5.79241 8.3549C6.37882 8.94303 7.1641 9.26709 8.00085 9.26709C8.83588 9.26709 9.62116 8.94303 10.2076 8.3549L14.1272 4.43528C14.3415 4.79878 14.465 5.22228 14.465 5.67325V10.7846H14.465ZM12.0165 3.22478H3.98351C3.42626 3.22478 2.91185 3.41337 2.50035 3.72715L6.45941 7.68794C6.86922 8.096 7.41616 8.32234 8.00085 8.32234C8.58382 8.32234 9.13079 8.096 9.54057 7.68794L13.4996 3.72715C13.0882 3.41337 12.5738 3.22478 12.0165 3.22478ZM12.0165 2.28003H3.98351C2.11285 2.28003 0.590256 3.80262 0.590256 5.67328V10.7846C0.590256 12.657 2.11285 14.1778 3.98351 14.1778H12.0165C13.8872 14.1778 15.4098 12.657 15.4098 10.7846V5.67325C15.4098 3.80259 13.8872 2.28003 12.0165 2.28003Z" fill="#B8B8B8"/>
</svg>
