<svg width="20" height="20" viewBox="0 0 20 20" fill="none" xmlns="http://www.w3.org/2000/svg">
<path fill-rule="evenodd" clip-rule="evenodd" d="M18.0812 13.1946C18.0812 14.8835 16.7074 16.2552 15.0206 16.2552H4.97936C3.2926 16.2552 1.91873 14.8835 1.91873 13.1946V6.80549C1.91873 6.24182 2.07307 5.7124 2.34096 5.25803L7.24049 10.1576C7.9735 10.8927 8.9551 11.2978 10.001 11.2978C11.0448 11.2978 12.0264 10.8927 12.7594 10.1576L17.659 5.25803C17.9269 5.7124 18.0812 6.24178 18.0812 6.80549V13.1946H18.0812ZM15.0206 3.7449H4.97936C4.28279 3.7449 3.63979 3.98064 3.12541 4.37287L8.07424 9.32385C8.5865 9.83393 9.27018 10.1169 10.001 10.1169C10.7297 10.1169 11.4135 9.83393 11.9257 9.32385L16.8745 4.37287C16.3602 3.98064 15.7172 3.7449 15.0206 3.7449ZM15.0206 2.56396H4.97936C2.64104 2.56396 0.737793 4.46721 0.737793 6.80553V13.1947C0.737793 15.5351 2.64104 17.4362 4.97936 17.4362H15.0206C17.3589 17.4362 19.2622 15.5351 19.2622 13.1947V6.80549C19.2622 4.46717 17.3589 2.56396 15.0206 2.56396Z" fill="white"/>
</svg>
