<svg width="20" height="20" viewBox="0 0 20 20" fill="none" xmlns="http://www.w3.org/2000/svg">
<path d="M13.6375 18.75H6.36249C5.53978 18.7805 4.73824 18.4852 4.13204 17.9281C3.52584 17.3711 3.16394 16.5973 3.12499 15.775V11.875C3.12499 11.7092 3.19084 11.5502 3.30805 11.433C3.42526 11.3158 3.58423 11.25 3.74999 11.25C3.91575 11.25 4.07473 11.3158 4.19194 11.433C4.30915 11.5502 4.37499 11.7092 4.37499 11.875V15.775C4.41341 16.2659 4.64339 16.722 5.01527 17.0447C5.38715 17.3675 5.87106 17.531 6.36249 17.5H13.6375C14.1289 17.531 14.6128 17.3675 14.9847 17.0447C15.3566 16.722 15.5866 16.2659 15.625 15.775V11.875C15.625 11.7092 15.6908 11.5502 15.8081 11.433C15.9253 11.3158 16.0842 11.25 16.25 11.25C16.4158 11.25 16.5747 11.3158 16.6919 11.433C16.8091 11.5502 16.875 11.7092 16.875 11.875V15.775C16.836 16.5973 16.4742 17.3711 15.8679 17.9281C15.2617 18.4852 14.4602 18.7805 13.6375 18.75ZM18.5687 10.4437C18.6273 10.3856 18.6738 10.3165 18.7056 10.2403C18.7373 10.1642 18.7536 10.0825 18.7536 9.99996C18.7536 9.91745 18.7373 9.83576 18.7056 9.7596C18.6738 9.68344 18.6273 9.61431 18.5687 9.55621L10.4437 1.43121C10.3856 1.37263 10.3165 1.32614 10.2404 1.2944C10.1642 1.26267 10.0825 1.24634 9.99999 1.24634C9.91749 1.24634 9.8358 1.26267 9.75963 1.2944C9.68347 1.32614 9.61435 1.37263 9.55624 1.43121L1.43124 9.55621C1.31355 9.6739 1.24744 9.83352 1.24744 9.99996C1.24744 10.1664 1.31355 10.326 1.43124 10.4437C1.54893 10.5614 1.70856 10.6275 1.87499 10.6275C2.04143 10.6275 2.20105 10.5614 2.31874 10.4437L9.99999 2.75621L17.6812 10.4437C17.7393 10.5023 17.8085 10.5488 17.8846 10.5805C17.9608 10.6123 18.0425 10.6286 18.125 10.6286C18.2075 10.6286 18.2892 10.6123 18.3654 10.5805C18.4415 10.5488 18.5106 10.5023 18.5687 10.4437Z" fill="white"/>
</svg>
