<svg width="16" height="17" viewBox="0 0 16 17" fill="none" xmlns="http://www.w3.org/2000/svg">
<g clip-path="url(#clip0_70_327)">
<path d="M12.7852 2.21107C11.507 0.932912 9.80762 0.229004 8.00005 0.229004C6.19248 0.229004 4.49304 0.932912 3.21492 2.21107C1.93676 3.48926 1.23285 5.18864 1.23285 6.99617C1.23285 10.6528 4.69029 13.6942 6.54777 15.3282C6.80589 15.5552 7.0288 15.7513 7.20639 15.9172C7.42889 16.125 7.71449 16.229 8.00002 16.229C8.28561 16.229 8.57115 16.125 8.79368 15.9172C8.97127 15.7513 9.19418 15.5552 9.4523 15.3282C11.3098 13.6942 14.7672 10.6528 14.7672 6.99617C14.7672 5.18864 14.0633 3.48926 12.7852 2.21107ZM8.83324 14.6245C8.56946 14.8565 8.34168 15.0569 8.15386 15.2323C8.06758 15.3128 7.93246 15.3129 7.84614 15.2323C7.65836 15.0568 7.43055 14.8565 7.16677 14.6244C5.42051 13.0883 2.17004 10.229 2.17004 6.99621C2.17004 3.78157 4.78532 1.16629 7.99999 1.16629C11.2146 1.16629 13.8299 3.78157 13.8299 6.99621C13.8299 10.229 10.5795 13.0883 8.83324 14.6245Z" fill="#B8B8B8"/>
<path d="M8.00005 3.7583C6.35564 3.7583 5.01782 5.09608 5.01782 6.74049C5.01782 8.3849 6.35564 9.72269 8.00005 9.72269C9.64446 9.72269 10.9822 8.3849 10.9822 6.74049C10.9822 5.09608 9.64446 3.7583 8.00005 3.7583ZM8.00005 8.7854C6.87245 8.7854 5.95507 7.86803 5.95507 6.74046C5.95507 5.6129 6.87245 4.69552 8.00005 4.69552C9.12764 4.69552 10.045 5.6129 10.045 6.74046C10.045 7.86803 9.12764 8.7854 8.00005 8.7854Z" fill="#B8B8B8"/>
</g>
<defs>
<clipPath id="clip0_70_327">
<rect width="16" height="16" fill="white" transform="translate(0 0.229004)"/>
</clipPath>
</defs>
</svg>
