<svg width="16" height="17" viewBox="0 0 16 17" fill="none" xmlns="http://www.w3.org/2000/svg">
<g clip-path="url(#clip0_70_337)">
<path d="M3.26031 10.8647C4.83843 12.7512 6.73814 14.2365 8.90639 15.2874C9.73192 15.6787 10.8359 16.1428 12.0659 16.2224C12.1422 16.2257 12.2151 16.229 12.2914 16.229C13.1169 16.229 13.78 15.9439 14.3204 15.3571C14.3237 15.3537 14.3303 15.3471 14.3337 15.3405C14.526 15.1084 14.7448 14.8995 14.9735 14.6774C15.1294 14.5282 15.2885 14.3724 15.441 14.2133C16.1472 13.4772 16.1472 12.5423 15.4344 11.8295L13.4418 9.83696C13.1037 9.48553 12.6992 9.29987 12.2748 9.29987C11.8504 9.29987 11.4427 9.48553 11.0945 9.83365L9.90764 11.0205C9.79823 10.9576 9.68551 10.9012 9.57942 10.8481C9.4468 10.7818 9.32413 10.7189 9.21472 10.6492C8.13391 9.96294 7.15256 9.06779 6.21431 7.91736C5.74021 7.31728 5.42194 6.81334 5.19981 6.29946C5.51145 6.01765 5.8032 5.72258 6.08501 5.43414C6.18447 5.33137 6.28725 5.22859 6.39003 5.12581C6.74809 4.76775 6.94038 4.35333 6.94038 3.93228C6.94038 3.51122 6.7514 3.0968 6.39003 2.73874L5.40204 1.75076C5.28601 1.63472 5.1766 1.522 5.06388 1.40596C4.84506 1.18052 4.6163 0.94844 4.39085 0.739572C4.04937 0.404719 3.64821 0.229004 3.22384 0.229004C2.80279 0.229004 2.39831 0.404719 2.04357 0.742887L0.803618 1.98284C0.352727 2.43373 0.0974433 2.98077 0.0443973 3.614C-0.0185948 4.40638 0.127282 5.24848 0.505234 6.2663C1.08543 7.8411 1.96068 9.30318 3.26031 10.8647ZM0.853349 3.68362C0.893133 3.24268 1.06222 2.87467 1.38049 2.5564L2.61381 1.32308C2.8061 1.13742 3.01829 1.04127 3.22384 1.04127C3.42608 1.04127 3.63163 1.13742 3.82061 1.32971C4.04274 1.53526 4.25161 1.75076 4.47705 1.97952C4.58978 2.09556 4.70581 2.2116 4.82185 2.33095L5.80983 3.31893C6.01539 3.52449 6.12148 3.73336 6.12148 3.93891C6.12148 4.14446 6.01539 4.35333 5.80983 4.55888C5.70706 4.66166 5.60428 4.76775 5.5015 4.87053C5.19317 5.18217 4.90474 5.47724 4.58646 5.75905C4.57983 5.76568 4.57652 5.769 4.56988 5.77563C4.29471 6.0508 4.33781 6.31272 4.40412 6.51164C4.40743 6.52159 4.41075 6.52822 4.41406 6.53816C4.66935 7.15151 5.02409 7.73501 5.57776 8.43124C6.57237 9.65793 7.62003 10.6094 8.77378 11.3421C8.91634 11.435 9.06885 11.5079 9.21141 11.5808C9.34402 11.6472 9.46669 11.7101 9.5761 11.7798C9.58936 11.7864 9.59931 11.793 9.61257 11.7997C9.72198 11.856 9.82807 11.8825 9.93416 11.8825C10.1994 11.8825 10.3718 11.7135 10.4282 11.6571L11.6681 10.4172C11.8604 10.2249 12.0693 10.1221 12.2748 10.1221C12.5268 10.1221 12.7323 10.2779 12.8616 10.4172L14.8608 12.413C15.2587 12.8109 15.2553 13.2419 14.8509 13.6629C14.7116 13.8121 14.5657 13.9547 14.4099 14.1038C14.1778 14.3293 13.9358 14.5614 13.717 14.8233C13.3357 15.2344 12.8815 15.4267 12.2947 15.4267C12.2383 15.4267 12.1787 15.4234 12.1223 15.4201C11.0349 15.3504 10.0237 14.9261 9.26445 14.5647C7.20229 13.5668 5.3921 12.1511 3.89023 10.3542C2.6536 8.86556 1.82144 7.47973 1.27109 5.99444C0.929602 5.08271 0.800303 4.35002 0.853349 3.68362Z" fill="#B8B8B8"/>
</g>
<defs>
<clipPath id="clip0_70_337">
<rect width="16" height="16" fill="white" transform="translate(0 0.229004)"/>
</clipPath>
</defs>
</svg>
